{"title":"Within The Whirlwind-AC3-XviD-DVDRip 2009 TBS","uid":6103962,"size":1568473998,"categoryP":"video","categoryS":"movies","magnet":"?xt=urn:btih:fad50432f7d1737f7934013d7a156ec5d0780e53&amp;dn=Within+The+Whirlwind-AC3-XviD-DVDRip+2009+TBS&amp;tr=udp%3A%2F%2Ftracker.openbittorrent.com%3A80&amp;tr=udp%3A%2F%2Fopen.demonii.com%3A1337&amp;tr=udp%3A%2F%2Ftracker.coppersurfer.tk%3A6969&amp;tr=udp%3A%2F%2Fexodus.desync.com%3A6969","seeders":0,"leechers":1,"uploader":"FatFreddy30","files":-1,"time":1295090162,"description":"During Stalin's reign of terror, Evgenia Ginzburg, a literature professor, was sent to 10 years hard labor in a gulag in Siberia. Having lost everything, and no longer wishing to live, she meets the camp doctor and begins to come back to life.\n &lt;a href=&quot;\nhttp://www.imdb.com/title/tt1142804/&quot; rel=&quot;nofollow&quot; target=&quot;_NEW&quot;&gt;\nhttp://www.imdb.com/title/tt1142804/&lt;/a&gt;\n\nSubs: Dutch (srt).\n\n\nEvgenia Ginzburg (Emily Watson) leeft in het Rusland in de roerige beginjaren van het communisme. Aanvankelijk heeft ze geen last van het nieuwe bewind en ze weet een succesvolle carriÃƒÂ¨re van de grond te krijgen. Maar onder Stalin wordt zij opgepakt op verdenking aanhanger te zijn van het Trotskisme. Niet veel later komt ze terecht in een strafkamp en Evgenia krijgt een loodzware tijd die zij alleen weet te overleven dankzij geloof in poÃƒÂ«zie.\n &lt;a href=&quot;\nhttp://www.moviemeter.nl/film/48312&quot; rel=&quot;nofollow&quot; target=&quot;_NEW&quot;&gt;\nhttp://www.moviemeter.nl/film/48312&lt;/a&gt;\n\nOndertitels: Nederlands (srt).\n\nGeneral\nComplete name                    : Within The Whirlwind-AC3-XviD-DVDRip 2009 TBS\\Within The Whirlwind-AC3-XviD-DVDRip 2009 TBS.avi\nFormat                           : AVI\nFormat/Info                      : Audio Video Interleave\nFile size                        : 1.46 GiB\nDuration                         : 1h 45mn\nOverall bit rate                 : 1 973 Kbps\nWriting application              : VirtualDubMod 1.5.4.1 (build 2178/release)\nWriting library                  : VirtualDubMod build 2178/release\n\nVideo\nID                               : 0\nFormat                           : MPEG-4 Visual\nFormat profile                   : Simple@L3\nFormat settings, BVOP            : No\nFormat settings, QPel            : No\nFormat settings, GMC             : No warppoints\nFormat settings, Matrix          : Default (H.263)\nCodec ID                         : XVID\nCodec ID/Hint                    : XviD\nDuration                         : 1h 45mn\nBit rate                         : 1 515 Kbps\nWidth                            : 720 pixels\nHeight                           : 400 pixels\nDisplay aspect ratio             : 16:9\nFrame rate                       : 25.000 fps\nResolution                       : 8 bits\nColorimetry                      : 4:2:0\nScan type                        : Progressive\nBits/(Pixel*Frame)               : 0.210\nStream size                      : 1.12 GiB (77%)\nWriting library                  : XviD 1.1.2 (UTC 2006-11-01)\n\nAudio\nID                               : 1\nFormat                           : AC-3\nFormat/Info                      : Audio Coding 3\nCodec ID                         : 2000\nDuration                         : 1h 45mn\nBit rate mode                    : Constant\nBit rate                         : 448 Kbps\nChannel(s)                       : 6 channels\nChannel positions                : Front: L C R, Surround: L R, LFE\nSampling rate                    : 48.0 KHz\nStream size                      : 340 MiB (23%)\nAlignment                        : Split accross interleaves\nInterleave, duration             : 40 ms (1.00 video frame)\nInterleave, preload duration     : 500 ms\n\nThanks to Drentje for the source..\n\nBlackbeard  TBS.","torrent":{"xt":"urn:btih:fad50432f7d1737f7934013d7a156ec5d0780e53","amp;dn":"Within+The+Whirlwind-AC3-XviD-DVDRip+2009+TBS","amp;tr":["udp%3A%2F%2Ftracker.openbittorrent.com%3A80","udp%3A%2F%2Fopen.demonii.com%3A1337","udp%3A%2F%2Ftracker.coppersurfer.tk%3A6969","udp%3A%2F%2Fexodus.desync.com%3A6969"],"infoHash":"fad50432f7d1737f7934013d7a156ec5d0780e53","infoHashBuffer":{"type":"Buffer","data":[250,213,4,50,247,209,115,127,121,52,1,61,122,21,110,197,208,120,14,83]},"announce":[],"urlList":[]}}